<svg xmlns="http://www.w3.org/2000/svg" viewBox="0 0 180 180" fill="none">
     <rect width="180" height="180" fill="#1976d2" rx="30" />
     <path
          d="M90 38c-8.28 0-15 6.72-15 15v15h-15c-8.28 0-15 6.72-15 15v45c0 8.28 6.72 15 15 15h60c8.28 0 15-6.72 15-15V83c0-8.28-6.72-15-15-15h-15V53c0-8.28-6.72-15-15-15zm0 7.5c4.14 0 7.5 3.36 7.5 7.5v15h-15V53c0-4.14 3.36-7.5 7.5-7.5zM60 75.5h60c4.14 0 7.5 3.36 7.5 7.5v45c0 4.14-3.36 7.5-7.5 7.5H60c-4.14 0-7.5-3.36-7.5-7.5V83c0-4.14 3.36-7.5 7.5-7.5zm30 18.75c-6.21 0-11.25 5.04-11.25 11.25s5.04 11.25 11.25 11.25 11.25-5.04 11.25-11.25-5.04-11.25-11.25-11.25z"
          fill="white" />
     <text x="90" y="160" font-family="Arial, sans-serif" font-size="30" font-weight="bold"
          fill="white" text-anchor="middle">KT</text>
</svg>