<svg xmlns="http://www.w3.org/2000/svg" viewBox="0 0 512 512" fill="none">
     <rect width="512" height="512" fill="#1976d2" rx="85" />
     <path
          d="M256 106.667c-23.564 0-42.667 19.103-42.667 42.666v42.667h-42.666c-23.564 0-42.667 19.102-42.667 42.666v128c0 23.564 19.103 42.667 42.667 42.667h170.666c23.564 0 42.667-19.103 42.667-42.667v-128c0-23.564-19.103-42.666-42.667-42.666h-42.666v-42.667c0-23.563-19.103-42.666-42.667-42.666zm0 21.333c11.782 0 21.333 9.551 21.333 21.333v42.667h-42.666v-42.667c0-11.782 9.55-21.333 21.333-21.333zM170.667 213.333h170.666c11.782 0 21.334 9.551 21.334 21.333v128c0 11.782-9.552 21.334-21.334 21.334H170.667c-11.782 0-21.334-9.552-21.334-21.334v-128c0-11.782 9.552-21.333 21.334-21.333zM256 266.667c-17.673 0-32 14.327-32 32 0 17.673 14.327 32 32 32 17.673 0 32-14.327 32-32 0-17.673-14.327-32-32-32z"
          fill="white" />
     <text x="256" y="460" font-family="Arial, sans-serif" font-size="85" font-weight="bold"
          fill="white" text-anchor="middle">KT</text>
</svg>